<svg xmlns:x="http://ns.adobe.com/Extensibility/1.0/" xmlns:i="http://ns.adobe.com/AdobeIllustrator/10.0/" xmlns:graph="http://ns.adobe.com/Graphs/1.0/" xmlns="http://www.w3.org/2000/svg" xmlns:xlink="http://www.w3.org/1999/xlink" version="1.1" x="0px" y="0px" viewBox="0 0 64 64" enable-background="new 0 0 64 64" xml:space="preserve"><metadata><sfw xmlns="http://ns.adobe.com/SaveForWeb/1.0/"><slices></slices><sliceSourceBounds x="-8046" y="-276" width="16383" height="282" bottomLeftOrigin="true"></sliceSourceBounds></sfw></metadata><path d="M20.938,26.205h4c0.553,0,1-0.447,1-1v-4c0-0.553-0.447-1-1-1h-4c-0.553,0-1,0.447-1,1v4  C19.938,25.758,20.386,26.205,20.938,26.205z M21.938,22.205h2v2h-2V22.205z"></path><path d="M29.938,26.205h4c0.553,0,1-0.447,1-1v-4c0-0.553-0.447-1-1-1h-4c-0.553,0-1,0.447-1,1v4  C28.938,25.758,29.386,26.205,29.938,26.205z M30.938,22.205h2v2h-2V22.205z"></path><path d="M38.938,26.205h4c0.553,0,1-0.447,1-1v-4c0-0.553-0.447-1-1-1h-4c-0.553,0-1,0.447-1,1v4  C37.938,25.758,38.386,26.205,38.938,26.205z M39.938,22.205h2v2h-2V22.205z"></path><path d="M20.938,35.205h4c0.553,0,1-0.447,1-1v-4c0-0.553-0.447-1-1-1h-4c-0.553,0-1,0.447-1,1v4  C19.938,34.758,20.386,35.205,20.938,35.205z M21.938,31.205h2v2h-2V31.205z"></path><path d="M29.938,35.205h4c0.553,0,1-0.447,1-1v-4c0-0.553-0.447-1-1-1h-4c-0.553,0-1,0.447-1,1v4  C28.938,34.758,29.386,35.205,29.938,35.205z M30.938,31.205h2v2h-2V31.205z"></path><path d="M38.938,35.205h4c0.553,0,1-0.447,1-1v-4c0-0.553-0.447-1-1-1h-4c-0.553,0-1,0.447-1,1v4  C37.938,34.758,38.386,35.205,38.938,35.205z M39.938,31.205h2v2h-2V31.205z"></path><path d="M20.938,44.205h4c0.553,0,1-0.447,1-1v-4c0-0.553-0.447-1-1-1h-4c-0.553,0-1,0.447-1,1v4  C19.938,43.758,20.386,44.205,20.938,44.205z M21.938,40.205h2v2h-2V40.205z"></path><path d="M29.938,44.205h4c0.553,0,1-0.447,1-1v-4c0-0.553-0.447-1-1-1h-4c-0.553,0-1,0.447-1,1v4  C28.938,43.758,29.386,44.205,29.938,44.205z M30.938,40.205h2v2h-2V40.205z"></path><path d="M38.938,44.205h4c0.553,0,1-0.447,1-1v-4c0-0.553-0.447-1-1-1h-4c-0.553,0-1,0.447-1,1v4  C37.938,43.758,38.386,44.205,38.938,44.205z M39.938,40.205h2v2h-2V40.205z"></path><path d="M62.126,57.239H49.625v-2.097h8.46c0.553,0,1-0.447,1-1s-0.447-1-1-1h-8.46V18.08c0-0.553-0.447-1-1-1H37.141  c1.3-1.271,2.11-3.042,2.11-5c0-3.859-3.14-7-6.999-7c-3.86,0-7.001,3.141-7.001,7c0,1.958,0.811,3.729,2.111,5H15.625  c-0.553,0-1,0.447-1,1v35.375h-8.46c-0.553,0-1,0.447-1,1s0.447,1,1,1h8.46v1.784H2.126c-0.553,0-1,0.447-1,1s0.447,1,1,1h60  c0.553,0,1-0.447,1-1S62.679,57.239,62.126,57.239z M36.126,57.08h-8v-9h8V57.08z M27.251,12.08c0-2.757,2.243-5,5.001-5  c2.757,0,4.999,2.243,4.999,5s-2.242,5-4.999,5C29.494,17.08,27.251,14.837,27.251,12.08z M16.625,19.08h31v38h-9.499v-10  c0-0.553-0.447-1-1-1h-10c-0.553,0-1,0.447-1,1v10h-9.501V19.08z"></path><path d="M34.751,11.08h-1.499v-1.5c0-0.553-0.447-1-1-1s-1,0.447-1,1v1.5h-1.501c-0.553,0-1,0.447-1,1s0.447,1,1,1h1.501v1.5  c0,0.553,0.447,1,1,1s1-0.447,1-1v-1.5h1.499c0.553,0,1-0.447,1-1S35.304,11.08,34.751,11.08z"></path></svg>